<svg width="702" height="663" viewBox="0 0 702 663" fill="none" xmlns="http://www.w3.org/2000/svg">
<path d="M569.41 44.5445C562.166 40.5818 558.869 43.8789 556.222 40.5818C553.575 37.2848 563.482 28.7093 543.699 20.1492C543.699 20.1492 542.384 1.68252 515.341 1.01691C488.299 0.351303 495.559 19.5301 488.253 24.1429C480.947 28.7557 478.965 21.5114 471.767 26.1242C464.57 30.737 467.805 40.0555 461.876 41.2939C455.948 42.5322 448.022 35.3499 440.778 39.9781C433.534 44.6064 433.518 48.5382 430.221 48.5382C426.924 48.5382 420.33 45.9067 416.383 48.5382C412.435 51.1696 407.807 54.4822 407.807 54.4822H574.689C574.689 54.4822 576.67 48.5382 569.41 44.5445Z" stroke="#263238" stroke-linecap="round" stroke-linejoin="round"/>
<path d="M470.73 41.8821C469.782 42.4116 468.8 42.8771 467.789 43.2752" stroke="#263238" stroke-linecap="round" stroke-linejoin="round"/>
<path d="M506.425 11.0784C504.788 11.81 503.35 12.9222 502.23 14.3223C501.11 15.7224 500.34 17.3699 499.986 19.1276C498.779 25.1645 495.961 29.1891 492.742 29.5915C489.522 29.994 477.448 28.7866 475.436 33.2137C474.899 34.5104 474.52 35.8668 474.306 37.2538" stroke="#263238" stroke-linecap="round" stroke-linejoin="round"/>
<path d="M484.832 91.9883C481.024 89.9141 479.306 91.6478 477.913 89.9141C476.519 88.1804 481.72 83.7224 471.349 79.2025C471.349 79.2025 470.653 69.5125 456.489 69.1719C442.326 68.8314 446.118 78.8465 442.31 81.2767C438.502 83.7069 437.465 79.8836 433.673 82.3138C429.881 84.744 431.599 89.5736 428.487 90.2546C425.376 90.9357 421.212 87.1588 417.42 89.5735C413.627 91.9883 413.612 94.0625 411.878 94.0625C410.145 94.0625 406.693 92.6849 404.618 94.0625C402.544 95.4402 400.129 97.1584 400.129 97.1584H487.603C487.603 97.1584 488.64 94.078 484.832 91.9883Z" stroke="#263238" stroke-linecap="round" stroke-linejoin="round"/>
<path d="M433.085 90.5643C432.59 90.8495 432.072 91.0928 431.537 91.2918" stroke="#263238" stroke-linecap="round" stroke-linejoin="round"/>
<path d="M451.799 74.4194C450.946 74.7991 450.195 75.376 449.608 76.1026C449.022 76.8292 448.616 77.6848 448.425 78.5988C447.79 81.6947 446.319 83.8772 444.632 84.094C442.945 84.3107 436.614 83.676 435.561 85.9979C435.278 86.6734 435.075 87.38 434.958 88.1031" stroke="#263238" stroke-linecap="round" stroke-linejoin="round"/>
<path d="M46.4445 238.809C46.4445 238.809 116.101 245.697 151.347 288.853C151.347 288.853 188.621 238.855 255.584 239.893C271.939 220.156 282.351 196.18 285.608 170.756C288.865 145.331 284.833 119.505 273.982 96.2832C263.131 73.0613 245.907 53.3993 224.316 39.5863C202.724 25.7732 177.653 18.3773 152.021 18.2597C126.39 18.1421 101.252 25.3076 79.5344 38.9219C57.8169 52.5363 40.4133 72.0394 29.3497 95.1607C18.2861 118.282 14.0177 144.07 17.0414 169.523C20.065 194.976 30.2564 219.047 46.429 238.933L46.4445 238.809Z" fill="#49A078"/>
<path opacity="0.5" d="M46.4445 238.809C46.4445 238.809 116.101 245.697 151.347 288.853C151.347 288.853 188.621 238.855 255.584 239.893C271.939 220.156 282.351 196.18 285.608 170.756C288.865 145.331 284.833 119.505 273.982 96.2832C263.131 73.0613 245.907 53.3993 224.316 39.5863C202.724 25.7732 177.653 18.3773 152.021 18.2597C126.39 18.1421 101.252 25.3076 79.5344 38.9219C57.8169 52.5363 40.4133 72.0394 29.3497 95.1607C18.2861 118.282 14.0177 144.07 17.0414 169.523C20.065 194.976 30.2564 219.047 46.429 238.933L46.4445 238.809Z" fill="white"/>
<path d="M149.041 27.765L146.688 560.003H158.452L149.041 27.765Z" fill="#263238"/>
<path d="M152.57 275.696C152.57 275.696 176.068 233.407 218.372 220.481C218.372 220.481 173.715 231.054 151.394 267.476L152.57 275.696Z" fill="#263238"/>
<path d="M152.57 155.856C152.57 155.856 176.068 113.551 218.372 100.626C218.372 100.626 173.715 111.198 151.394 147.621L152.57 155.856Z" fill="#263238"/>
<path d="M152.57 215.776C152.57 215.776 176.068 173.471 218.372 160.546C218.372 160.546 173.715 171.118 151.394 207.556L152.57 215.776Z" fill="#263238"/>
<path d="M149.087 186.396C149.087 186.396 126.41 144.091 85.6224 131.166C85.6224 131.166 128.717 141.754 150.248 178.177L149.087 186.396Z" fill="#263238"/>
<path d="M149.087 245.155C149.087 245.155 126.41 202.851 85.6224 189.925C85.6224 189.925 128.717 200.498 150.248 236.92L149.087 245.155Z" fill="#263238"/>
<path d="M494.135 284.364C494.135 284.364 553.885 290.277 584.162 327.319C584.162 327.319 616.142 284.411 673.601 285.293C687.63 268.357 696.56 247.785 699.352 225.972C702.144 204.158 698.682 182 689.371 162.078C680.059 142.155 665.28 125.286 646.755 113.436C628.229 101.586 606.719 95.2414 584.728 95.1409C562.736 95.0403 541.169 101.188 522.536 112.868C503.902 124.549 488.97 141.281 479.477 161.118C469.984 180.955 466.32 203.08 468.912 224.919C471.504 246.757 480.246 267.409 494.119 284.473L494.135 284.364Z" fill="#49A078"/>
<path opacity="0.5" d="M494.135 284.364C494.135 284.364 553.885 290.277 584.162 327.319C584.162 327.319 616.142 284.411 673.601 285.293C687.63 268.357 696.56 247.785 699.352 225.972C702.144 204.158 698.682 182 689.371 162.078C680.059 142.155 665.28 125.286 646.755 113.436C628.229 101.586 606.719 95.2414 584.728 95.1409C562.736 95.0403 541.169 101.188 522.536 112.868C503.902 124.549 488.97 141.281 479.477 161.118C469.984 180.955 466.32 203.08 468.912 224.919C471.504 246.757 480.246 267.409 494.119 284.473L494.135 284.364Z" fill="white"/>
<path d="M582.181 103.257L580.168 560.003H590.245L582.181 103.257Z" fill="#263238"/>
<path d="M585.199 316.019C585.199 316.019 605.322 279.72 641.667 268.637C641.667 268.637 603.356 277.708 584.193 308.883L585.199 316.019Z" fill="#263238"/>
<path d="M585.199 213.175C585.199 213.175 605.322 176.877 641.667 165.778C641.667 165.778 603.356 174.849 584.193 206.117L585.199 213.175Z" fill="#263238"/>
<path d="M585.199 264.597C585.199 264.597 605.322 228.298 641.667 217.2C641.667 217.2 603.356 226.286 584.193 257.539L585.199 264.597Z" fill="#263238"/>
<path d="M582.212 239.397C582.212 239.397 562.754 203.083 527.725 192C527.725 192 564.705 201.07 583.187 232.339L582.212 239.397Z" fill="#263238"/>
<path d="M582.212 289.813C582.212 289.813 562.754 253.514 527.725 242.416C527.725 242.416 564.705 251.486 583.187 282.754L582.212 289.813Z" fill="#263238"/>
<path d="M354.574 561.907C354.791 557.062 354.141 547.883 348.878 534.044C340.627 512.373 326.185 555.715 326.185 555.715C326.185 555.715 326.185 550.561 310.706 534.044C295.227 517.528 281.806 546.428 281.806 546.428C281.806 546.428 289.035 477.297 271.482 482.452C253.928 487.607 256.002 546.428 256.002 546.428C256.002 546.428 243.619 503.086 227.118 503.086C210.617 503.086 206.469 534.044 206.469 534.044C206.469 534.044 202.351 479.356 185.835 478.319C169.319 477.282 150.805 523.735 150.805 523.735C150.805 523.735 155.976 461.818 139.459 458.722C122.943 455.627 116.751 481.415 116.751 481.415C116.751 481.415 102.309 395.768 74.4464 406.093C46.5838 416.418 70.3135 511.352 70.3135 511.352C70.3135 511.352 42.4509 445.302 19.6964 460.781C-0.890995 474.867 25.3154 548.61 30.2687 561.907H354.574Z" fill="#49A078"/>
<path d="M21.7551 563.981C21.7551 563.981 9.37175 524.757 15.5634 518.565C21.7551 512.373 48.6426 539.214 48.6426 539.214C48.6426 539.214 29.0459 473.165 60.0043 464.914C90.9628 456.664 96.0554 528.89 96.0554 528.89C96.0554 528.89 118.763 495.873 123.918 508.256C127.053 515.793 128.82 523.829 129.135 531.986C129.135 531.986 140.496 442.206 166.285 446.339C192.073 450.472 168.359 539.214 168.359 539.214C168.359 539.214 182.801 508.256 199.317 511.352C215.834 514.448 222.01 534.044 222.01 534.044C222.01 534.044 229.239 516.506 234.393 516.506C239.548 516.506 245.755 547.465 245.755 547.465C245.755 547.465 251.947 499.99 263.293 502.064C274.639 504.138 298.323 544.369 298.323 544.369C298.323 544.369 294.19 521.661 306.573 520.639C318.956 519.618 326.185 555.715 326.185 555.715C326.185 555.715 342.686 521.661 353.011 527.853C363.335 534.044 358.227 567.077 358.227 567.077" stroke="#263238" stroke-linecap="round" stroke-linejoin="round"/>
<path d="M78.5175 563.981L68.1928 517.543" stroke="#263238" stroke-linecap="round" stroke-linejoin="round"/>
<path d="M141.456 561.907L146.626 533.023" stroke="#263238" stroke-linecap="round" stroke-linejoin="round"/>
<path d="M274.577 563.981L265.29 538.177" stroke="#263238" stroke-linecap="round" stroke-linejoin="round"/>
<path d="M192.027 562.944L203.373 542.31" stroke="#263238" stroke-linecap="round" stroke-linejoin="round"/>
<path d="M75.4216 544.369L83.6721 527.853" stroke="#263238" stroke-linecap="round" stroke-linejoin="round"/>
<path d="M141.456 552.619L134.243 538.177" stroke="#263238" stroke-linecap="round" stroke-linejoin="round"/>
<path d="M197.181 551.598L192.027 542.31" stroke="#263238" stroke-linecap="round" stroke-linejoin="round"/>
<path d="M270.46 550.561L273.556 540.236" stroke="#263238" stroke-linecap="round" stroke-linejoin="round"/>
<path d="M671.248 561.907C671.465 557.062 670.815 547.883 665.552 534.044C657.301 512.373 642.859 555.715 642.859 555.715C642.859 555.715 642.859 550.561 627.38 534.044C611.901 517.528 598.48 546.428 598.48 546.428C598.48 546.428 605.709 477.297 588.156 482.452C570.602 487.607 572.677 546.428 572.677 546.428C572.677 546.428 560.293 503.086 543.792 503.086C527.291 503.086 523.143 534.044 523.143 534.044C523.143 534.044 519.025 479.356 502.509 478.319C485.993 477.282 467.418 523.735 467.418 523.735C467.418 523.735 472.588 461.818 456.071 458.722C439.555 455.627 433.363 481.415 433.363 481.415C433.363 481.415 418.921 395.768 391.059 406.093C363.196 416.418 386.926 511.352 386.926 511.352C386.926 511.352 359.063 445.302 336.371 460.781C315.721 474.852 341.99 548.61 346.943 561.907H671.248Z" fill="#49A078"/>
<path d="M338.429 563.981C338.429 563.981 326.046 524.757 332.238 518.565C338.429 512.373 365.255 539.214 365.255 539.214C365.255 539.214 345.658 473.165 376.617 464.914C407.575 456.664 412.73 528.89 412.73 528.89C412.73 528.89 435.438 495.873 440.592 508.256C443.706 515.797 445.452 523.832 445.747 531.986C445.747 531.986 457.109 442.206 482.897 446.339C508.685 450.472 484.971 539.214 484.971 539.214C484.971 539.214 499.413 508.256 515.93 511.352C532.446 514.448 538.622 534.044 538.622 534.044C538.622 534.044 545.851 516.506 551.006 516.506C556.16 516.506 562.367 547.465 562.367 547.465C562.367 547.465 568.559 499.99 579.905 502.064C591.252 504.138 614.997 544.369 614.997 544.369C614.997 544.369 610.864 521.661 623.247 520.639C635.631 519.618 642.859 555.715 642.859 555.715C642.859 555.715 659.36 521.661 669.685 527.853C680.009 534.044 674.839 567.077 674.839 567.077" stroke="#263238" stroke-linecap="round" stroke-linejoin="round"/>
<path d="M395.192 563.981L384.867 517.543" stroke="#263238" stroke-linecap="round" stroke-linejoin="round"/>
<path d="M458.13 561.907L463.3 533.023" stroke="#263238" stroke-linecap="round" stroke-linejoin="round"/>
<path d="M591.252 563.981L581.964 538.177" stroke="#263238" stroke-linecap="round" stroke-linejoin="round"/>
<path d="M508.701 562.944L520.047 542.31" stroke="#263238" stroke-linecap="round" stroke-linejoin="round"/>
<path d="M392.096 544.369L400.346 527.853" stroke="#263238" stroke-linecap="round" stroke-linejoin="round"/>
<path d="M458.13 552.619L450.917 538.177" stroke="#263238" stroke-linecap="round" stroke-linejoin="round"/>
<path d="M513.855 551.598L508.701 542.31" stroke="#263238" stroke-linecap="round" stroke-linejoin="round"/>
<path d="M587.134 550.561L590.23 540.236" stroke="#263238" stroke-linecap="round" stroke-linejoin="round"/>
<path d="M334.064 446.726H316.867V567.077H334.064V446.726Z" fill="#CCCCCC" stroke="#263238" stroke-linecap="round" stroke-linejoin="round"/>
<path d="M348.8 446.726H331.603V567.077H348.8V446.726Z" fill="white" stroke="#263238" stroke-linecap="round" stroke-linejoin="round"/>
<path d="M518.267 446.726H501.07V567.077H518.267V446.726Z" fill="#CCCCCC" stroke="#263238" stroke-linecap="round" stroke-linejoin="round"/>
<path d="M533.003 446.726H515.806V567.077H533.003V446.726Z" fill="white" stroke="#263238" stroke-linecap="round" stroke-linejoin="round"/>
<path d="M623.882 446.726H606.684V567.077H623.882V446.726Z" fill="#CCCCCC" stroke="#263238" stroke-linecap="round" stroke-linejoin="round"/>
<path d="M638.618 446.726H621.421V567.077H638.618V446.726Z" fill="white" stroke="#263238" stroke-linecap="round" stroke-linejoin="round"/>
<path d="M601.777 446.726H584.58V567.077H601.777V446.726Z" fill="#CCCCCC" stroke="#263238" stroke-linecap="round" stroke-linejoin="round"/>
<path d="M616.514 446.726H599.316V567.077H616.514V446.726Z" fill="white" stroke="#263238" stroke-linecap="round" stroke-linejoin="round"/>
<path d="M676.681 446.726H659.484V567.077H676.681V446.726Z" fill="#CCCCCC" stroke="#263238" stroke-linecap="round" stroke-linejoin="round"/>
<path d="M691.418 446.726H674.22V567.077H691.418V446.726Z" fill="white" stroke="#263238" stroke-linecap="round" stroke-linejoin="round"/>
<path d="M532.322 180.87C530.99 179.829 529.341 179.276 527.651 179.304C525.961 179.332 524.331 179.94 523.035 181.025L419.184 267.569V286.748L527.895 196.148L643.912 286.547V267.879L532.322 180.87Z" fill="#B2B2B2" stroke="#263238" stroke-linecap="round" stroke-linejoin="round"/>
<path d="M638.324 453.568H425.144V271.965L527.787 186.69L638.324 271.965V453.568Z" fill="white" stroke="#263238" stroke-linecap="round" stroke-linejoin="round"/>
<path d="M540.371 453.568H610.368V385.335L540.371 337.443V453.568Z" fill="#CCCCCC" stroke="#263238" stroke-linecap="round" stroke-linejoin="round"/>
<path d="M529.366 453.568H316.186V271.965L418.828 186.69L529.366 271.965V453.568Z" fill="#CCCCCC" stroke="#263238" stroke-linecap="round" stroke-linejoin="round"/>
<path d="M359.311 235.512H478.021" stroke="#263238" stroke-linecap="round" stroke-linejoin="round"/>
<path d="M315.644 278.498H636.296" stroke="#263238" stroke-linecap="round" stroke-linejoin="round"/>
<path d="M315.644 321.468H637.287" stroke="#263238" stroke-linecap="round" stroke-linejoin="round"/>
<path d="M315.644 364.454H540.371" stroke="#263238" stroke-linecap="round" stroke-linejoin="round"/>
<path d="M315.644 407.44H541.13" stroke="#263238" stroke-linecap="round" stroke-linejoin="round"/>
<path d="M419.866 185.142H528.824L641.946 272.26H532.988L419.866 185.142Z" fill="white" stroke="#263238" stroke-linecap="round" stroke-linejoin="round"/>
<path d="M452.465 207.169H556.857" stroke="#263238" stroke-linecap="round" stroke-linejoin="round"/>
<path d="M481.643 229.336H585.323" stroke="#263238" stroke-linecap="round" stroke-linejoin="round"/>
<path d="M510.806 251.486H614.161" stroke="#263238" stroke-linecap="round" stroke-linejoin="round"/>
<path d="M532.864 266.207L423.364 180.87C422.032 179.829 420.383 179.276 418.693 179.304C417.002 179.332 415.373 179.94 414.076 181.025L310.629 267.229V286.408L418.983 196.148L532.864 284.891V266.207Z" fill="#B2B2B2" stroke="#263238" stroke-linecap="round" stroke-linejoin="round"/>
<path d="M701.139 393.988L621.513 343.093V316.561L701.139 367.457V393.988Z" fill="#B2B2B2" stroke="#263238" stroke-linecap="round" stroke-linejoin="round"/>
<path d="M606.684 453.568H696.325V385.335L606.684 337.443V453.568Z" fill="white" stroke="#263238" stroke-linecap="round" stroke-linejoin="round"/>
<path d="M616.576 385.397H700.071L626.328 337.443H540.371L616.576 385.397Z" fill="white" stroke="#263238" stroke-linecap="round" stroke-linejoin="round"/>
<path d="M615.786 393.988L536.176 343.093V316.561L615.786 367.457V393.988Z" fill="#B2B2B2" stroke="#263238" stroke-linecap="round" stroke-linejoin="round"/>
<path d="M454.415 354.098H381.957V453.568H454.415V354.098Z" fill="#263238" stroke="#263238" stroke-linecap="round" stroke-linejoin="round"/>
<path d="M454.415 257.074H381.957V356.544H454.415V257.074Z" fill="#CCCCCC" stroke="#263238" stroke-linecap="round" stroke-linejoin="round"/>
<path d="M454.415 270.851H381.957V284.627H454.415V270.851Z" fill="#B2B2B2" stroke="#263238" stroke-linecap="round" stroke-linejoin="round"/>
<path d="M381.88 453.568H455.561L404.139 567.077H330.457L381.88 453.568Z" fill="white" stroke="#263238" stroke-linecap="round" stroke-linejoin="round"/>
<path d="M374.403 470.053H448.084L443.642 479.882H369.96L374.403 470.053Z" fill="#CCCCCC" stroke="#263238" stroke-linecap="round" stroke-linejoin="round"/>
<path d="M359.388 503.21H433.069L428.611 513.039H354.93L359.388 503.21Z" fill="#CCCCCC" stroke="#263238" stroke-linecap="round" stroke-linejoin="round"/>
<path d="M344.358 536.366H418.039L413.596 546.195H339.915L344.358 536.366Z" fill="#CCCCCC" stroke="#263238" stroke-linecap="round" stroke-linejoin="round"/>
<path d="M263.804 654.426C396.312 654.426 503.732 639.873 503.732 621.92C503.732 603.967 396.312 589.414 263.804 589.414C131.295 589.414 23.8757 603.967 23.8757 621.92C23.8757 639.873 131.295 654.426 263.804 654.426Z" fill="#49A078"/>
<path opacity="0.5" d="M263.804 654.426C396.312 654.426 503.732 639.873 503.732 621.92C503.732 603.967 396.312 589.414 263.804 589.414C131.295 589.414 23.8757 603.967 23.8757 621.92C23.8757 639.873 131.295 654.426 263.804 654.426Z" fill="white"/>
<path d="M352.035 340.198C352.035 340.198 368.753 346.962 381.446 348.154C394.139 349.346 413.674 340.198 416.862 323.48C420.051 306.763 409.293 275.34 405.717 268.575C402.142 261.811 380.641 214.058 368.707 203.717C356.772 193.377 337.268 187.387 333.29 185.808C329.312 184.229 332.098 199.337 331.309 208.888C330.519 218.438 330.504 266.981 330.504 266.981L327.718 330.647C327.718 330.647 342.407 336.189 352.035 340.198Z" fill="white"/>
<path d="M408.612 275.479C406.626 275.218 404.625 275.094 402.622 275.108C400.098 268.498 397.204 261.61 394.139 254.985C395.3 253.994 396.476 253.05 397.668 252.121L396.26 249.257C395.083 250.155 393.922 251.084 392.761 252.044C388.682 243.264 384.028 234.763 378.83 226.596C379.604 224.429 380.378 222.432 380.966 220.636C380.27 219.475 379.588 218.33 378.907 217.231C378.257 219.026 377.499 221.101 376.678 223.423C374.878 220.738 372.803 218.248 370.487 215.993C367.875 213.622 365.103 211.434 362.19 209.445C363.119 206.132 363.97 203.196 364.744 200.637C363.877 200.018 362.979 199.414 362.066 198.826C361.292 201.349 360.425 204.306 359.481 207.634C351.257 202.431 342.417 198.272 333.166 195.25L332.253 198.207C341.516 201.299 350.356 205.537 358.568 210.822C357.36 215.311 356.06 220.342 354.806 225.775C349.46 223.005 343.716 221.083 337.779 220.079L337.361 223.175C343.208 224.139 348.865 226.019 354.125 228.747C352.794 234.66 351.54 240.991 350.441 247.539C346.596 244.386 342.58 241.446 338.414 238.732L336.757 241.348C341.317 244.341 345.695 247.603 349.868 251.115C348.862 257.539 348.042 264.117 347.516 270.712C343.789 267.839 339.852 265.252 335.736 262.972L334.281 265.696C338.841 268.274 343.18 271.225 347.252 274.52C346.974 279.07 346.819 283.621 346.881 288.079H349.977C349.977 284.457 349.977 280.773 350.209 277.058C352.855 279.396 355.308 281.943 357.546 284.674C357.02 286.872 356.571 288.962 356.184 290.866L358.088 291.237C354.992 295.649 353.088 298.652 352.794 299.116L355.41 300.757L356.602 298.93L356.695 299.008C356.695 299.008 357.376 298.404 358.475 297.46V297.8C361.943 298.687 365.286 300.002 368.428 301.717L365.332 303.141C337.64 315.725 330.597 317.474 330.535 317.49L331.231 320.508C331.51 320.508 338.414 318.775 366.601 305.958C368.345 305.174 369.986 304.4 371.524 303.636C376.705 306.944 380.738 311.772 383.071 317.459H382.87C379.911 317.886 376.998 318.591 374.171 319.564C365.193 323.062 337.717 325.632 337.439 325.663L337.733 328.759C338.878 328.65 365.92 326.127 375.301 322.474C377.938 321.574 380.653 320.921 383.412 320.524L384.062 320.4C384.733 322.961 385.067 325.6 385.053 328.248C385.056 330.016 384.968 331.783 384.79 333.542C383.737 333.836 382.7 334.099 381.694 334.3C374.836 335.585 358.336 337.087 346.943 338.031L352.035 340.198L353.336 340.709C363.939 339.78 376.415 338.557 382.297 337.458C382.994 337.319 383.706 337.164 384.403 336.994C383.761 340.898 382.39 344.648 380.362 348.046L381.492 348.154C382.264 348.23 383.039 348.266 383.814 348.263C385.814 344.441 387.124 340.296 387.684 336.018C395.454 333.53 402.199 328.573 406.894 321.901C407.064 322.443 407.234 323 407.358 323.558C408.887 329.206 408.338 335.215 405.81 340.492C407.551 339.177 409.158 337.694 410.609 336.065C411.589 331.705 411.525 327.176 410.423 322.846C410.054 321.308 409.578 319.798 408.999 318.326C410.099 316.066 410.9 313.672 411.383 311.205C412.466 305.509 409.216 292.754 403.922 278.296C405.93 278.31 407.933 278.486 409.912 278.823C409.386 277.615 408.984 276.516 408.612 275.479ZM399.402 275.263C396.725 275.484 394.069 275.919 391.461 276.563C389.743 273.064 387.452 268.514 384.867 263.622C387.08 261.362 389.371 259.164 391.709 257.059C394.48 263.096 397.096 269.288 399.402 275.263ZM383.149 293.435C379.202 291.552 375.107 289.999 370.905 288.791C372.871 287.599 374.991 286.423 377.236 285.293C377.31 285.437 377.372 285.588 377.421 285.742C377.39 285.563 377.39 285.379 377.421 285.2L378.335 284.751L378.861 285.51L378.01 286.795L379.124 287.491L380.022 286.609C380.517 286.113 380.842 285.788 380.022 283.962C383.204 282.5 386.489 281.274 389.851 280.293C390.811 282.259 391.477 283.652 391.755 284.256C391.585 285.045 390.501 288.281 383.149 293.435ZM394.325 286.361C397.277 288.294 399.531 291.125 400.751 294.436C401.972 297.747 402.096 301.363 401.105 304.75C401.012 305.122 400.903 305.447 400.795 305.788C396.559 301.43 391.658 297.773 386.276 294.952C391.368 291.237 393.489 288.327 394.325 286.361ZM372.824 272.167C372.22 271.222 371.57 270.247 370.874 269.179C369.557 267.19 368.141 265.268 366.632 263.421C368.304 257.972 370.084 252.431 371.849 247.09C374.945 252.028 378.133 257.663 381.028 263.049C378.133 266.052 375.394 269.133 372.824 272.167ZM382.591 265.975C384.836 270.232 386.833 274.179 388.396 277.352C385.004 278.37 381.689 279.627 378.474 281.114C377.592 279.566 376.338 277.584 374.62 274.922C377.112 271.965 379.79 268.993 382.591 265.99V265.975ZM372.53 277.43C373.939 279.643 374.945 281.284 375.626 282.476C371.03 284.82 366.616 287.506 362.422 290.51C365.193 286.748 368.614 282.213 372.53 277.445V277.43ZM377.592 230.295C382.29 237.991 386.543 245.951 390.331 254.133C387.932 256.254 385.579 258.468 383.304 260.758C380.099 254.83 376.555 248.623 373.103 243.36C374.666 238.67 376.199 234.243 377.592 230.295ZM361.323 212.572C363.799 214.314 366.167 216.206 368.412 218.237C371.091 220.872 373.464 223.801 375.487 226.967C374.093 230.93 372.545 235.357 370.951 240.078C369.064 237.243 366.879 234.617 364.434 232.246C362.341 230.371 360.077 228.697 357.67 227.246C358.862 221.952 360.116 216.999 361.323 212.572ZM356.942 230.466C358.863 231.663 360.676 233.025 362.36 234.537C365.156 237.343 367.622 240.459 369.713 243.824C367.886 249.288 366.029 255.016 364.264 260.697C360.81 256.881 357.113 253.292 353.196 249.954C354.28 243.143 355.565 236.595 356.927 230.466H356.942ZM358.49 280.928C356.025 278.147 353.349 275.559 350.488 273.188C350.936 266.61 351.695 260.031 352.655 253.592C356.417 256.869 359.945 260.407 363.211 264.179C361.4 269.984 359.775 275.696 358.459 280.928H358.49ZM360.859 284.194L361.044 284.055L360.936 283.915C362.19 278.73 363.8 272.987 365.58 267.043C366.555 268.297 367.484 269.582 368.335 270.882C369.186 272.182 370.053 273.498 370.781 274.643C366.478 279.86 362.732 284.829 359.806 288.915C360.069 287.414 360.441 285.819 360.828 284.194H360.859ZM361.168 295.416C362.933 294.054 365.193 292.429 367.809 290.773L367.716 291.191C371.964 292.266 376.108 293.716 380.099 295.525C377.777 296.98 374.991 298.543 371.663 300.169C368.353 298.178 364.82 296.583 361.137 295.416H361.168ZM374.558 302.165C378.041 300.339 380.951 298.636 383.35 297.057C389.419 300.023 394.892 304.079 399.495 309.023C396.693 314.146 391.755 315.818 386.183 316.933C383.832 310.972 379.778 305.836 374.527 302.165H374.558ZM388.025 332.582C388.118 331.235 388.179 329.827 388.179 328.325C388.193 325.484 387.834 322.653 387.111 319.905C392.653 318.744 398.179 316.886 401.6 311.577C403.148 313.621 404.452 315.84 405.485 318.186C401.527 324.891 395.334 329.987 387.994 332.582H388.025ZM408.241 310.602C407.986 311.924 407.623 313.223 407.157 314.487C406.004 312.357 404.651 310.34 403.117 308.465C403.513 307.494 403.839 306.496 404.092 305.478C405.227 301.187 404.899 296.64 403.161 292.556C401.423 288.471 398.374 285.083 394.495 282.925C394.201 282.306 393.659 281.129 392.947 279.581C395.491 278.988 398.08 278.605 400.687 278.436C405.919 292.63 409.309 305.199 408.21 310.602H408.241Z" fill="#CCCCCC"/>
<path d="M352.035 340.198C352.035 340.198 368.753 346.962 381.446 348.154C394.139 349.346 413.674 340.198 416.862 323.48C420.051 306.763 409.293 275.34 405.717 268.575C402.142 261.811 380.641 214.058 368.707 203.717C356.772 193.377 337.268 187.387 333.29 185.808C329.312 184.229 332.098 199.337 331.309 208.888C330.519 218.438 330.504 266.981 330.504 266.981L327.718 330.647C327.718 330.647 342.407 336.189 352.035 340.198Z" stroke="#263238" stroke-linecap="round" stroke-linejoin="round"/>
<path d="M372.251 288.838C372.251 288.838 390.966 274.504 405.284 294.008" stroke="#263238" stroke-linecap="round" stroke-linejoin="round"/>
<path d="M238.929 79.1871C238.124 80.5183 238.542 57.7329 244.997 46.6807C247.164 42.9812 266.977 36.0465 286.125 40.489C305.273 44.9315 313.477 54.5132 314.158 58.9557C314.839 63.3983 311.789 91.8491 311.789 91.8491C311.789 91.8491 280.986 74.0635 238.929 79.1871Z" fill="#49A078" stroke="#263238" stroke-linecap="round" stroke-linejoin="round"/>
<path d="M340.16 108.024C341.657 93.4652 313.399 78.6327 277.044 74.895C240.689 71.1573 210.004 79.9298 208.507 94.4888C207.01 109.048 235.268 123.88 271.623 127.618C307.978 131.356 338.663 122.583 340.16 108.024Z" fill="#A6A6A6" stroke="#263238" stroke-linecap="round" stroke-linejoin="round"/>
<path d="M200.85 178.177C200.85 178.177 175.572 186.443 163.7 196.241C151.827 206.039 108.501 246.285 89.3993 259.706C70.298 273.126 63.0846 295.308 72.8985 311.824C82.7123 328.341 101.783 332.458 114.166 329.362C126.549 326.267 142.029 308.202 155.96 299.952C169.891 291.701 180.727 276.733 180.727 276.733C180.727 276.733 187.956 224.614 190.541 209.135C193.126 193.656 202.924 180.251 202.924 180.251C202.924 180.251 202.924 176.629 200.85 178.177Z" fill="white"/>
<path d="M175.804 207.247C176.578 198.764 177.352 191.876 177.987 187.511C176.872 188.053 175.758 188.625 174.659 189.213C174.04 194.074 173.235 201.055 172.507 209.336C167.518 212.632 162.821 216.351 158.468 220.451C156.146 222.68 153.514 224.94 150.728 227.199C150.357 219.119 150.14 212.541 150.016 208.206L146.92 210.884C147.059 215.528 147.292 221.937 147.663 229.459C141.007 234.521 133.391 239.614 125.745 244.645C124.336 240.125 123.051 236.162 121.983 232.88L119.445 235.094C120.497 238.314 121.72 242.121 123.051 246.425L121.132 247.679C115.234 251.533 109.553 255.263 104.445 258.839C102.763 257.405 100.943 256.139 99.0119 255.062C98.2844 254.66 97.5879 254.319 96.9068 254.025C95.9316 254.783 94.9873 255.573 94.0741 256.208C95.3329 256.658 96.55 257.217 97.7117 257.879C99.166 258.718 100.548 259.676 101.845 260.743C98.5166 263.142 95.4827 265.464 92.9286 267.678C89.7986 270.336 87.0162 273.379 84.6472 276.733C80.8278 276.396 76.979 276.689 73.2545 277.6C72.6044 278.838 72.0162 280.092 71.4899 281.361C75.111 280.216 78.9012 279.698 82.6968 279.829C75.3597 292.63 76.5051 307.691 86.2106 324.038C86.3476 324.269 86.5424 324.46 86.7758 324.593C87.0092 324.726 87.2732 324.796 87.5418 324.796C87.8203 324.801 88.0943 324.726 88.3313 324.579C88.6843 324.37 88.9397 324.029 89.0413 323.631C89.1429 323.234 89.0823 322.812 88.873 322.459C79.5855 306.685 78.6877 292.29 86.1951 280.154C87.4432 280.335 88.6788 280.593 89.8947 280.928C94.3924 282.204 98.5984 284.344 102.278 287.228C101.845 287.971 101.411 288.776 101.04 289.472C92.8202 305.834 104.817 316.05 104.94 316.159C105.097 316.289 105.277 316.387 105.472 316.448C105.666 316.508 105.871 316.53 106.074 316.511C106.276 316.492 106.473 316.434 106.653 316.339C106.834 316.244 106.993 316.114 107.123 315.957C107.253 315.801 107.352 315.62 107.412 315.426C107.472 315.232 107.494 315.027 107.475 314.824C107.457 314.622 107.398 314.425 107.303 314.244C107.208 314.064 107.079 313.905 106.922 313.775C106.813 313.682 96.6746 305.045 103.826 290.866C104.089 290.324 104.414 289.782 104.724 289.225C109.662 293.737 113.908 298.953 117.324 304.704C116.938 307.12 117.161 309.594 117.974 311.902C118.104 312.159 118.303 312.376 118.549 312.526C118.795 312.677 119.079 312.755 119.367 312.753C119.608 312.757 119.847 312.704 120.064 312.598C120.341 312.453 120.568 312.228 120.714 311.952C120.86 311.675 120.92 311.361 120.884 311.05C122.288 313.744 123.66 316.613 125.002 319.657C125.122 319.934 125.322 320.169 125.575 320.334C125.828 320.499 126.124 320.587 126.426 320.586C126.639 320.583 126.85 320.535 127.045 320.446C127.417 320.28 127.708 319.974 127.856 319.595C128.004 319.215 127.996 318.792 127.834 318.419C125.69 313.449 123.224 308.624 120.451 303.976C120.939 300.78 121.833 297.659 123.113 294.689C126.215 302.792 128.866 311.06 131.054 319.456C131.936 318.775 132.803 318.063 133.685 317.335C131.313 308.363 128.382 299.549 124.909 290.943C127.031 287.025 129.631 283.386 132.648 280.107C135.373 290.51 137.942 301.469 139.985 312.134L142.71 309.874C140.574 299.039 137.927 287.971 135.171 277.507C136.472 276.238 137.865 274.984 139.366 273.761C142.766 271.047 146.345 268.564 150.078 266.331C150.496 271.284 150.96 276.346 151.487 281.423C147.132 283.986 143.081 287.035 139.413 290.51C139.124 290.8 138.963 291.192 138.963 291.601C138.963 292.01 139.124 292.402 139.413 292.692C139.557 292.837 139.728 292.952 139.916 293.031C140.105 293.11 140.307 293.15 140.512 293.15C140.716 293.15 140.918 293.11 141.107 293.031C141.296 292.952 141.467 292.837 141.611 292.692C144.734 289.719 148.169 287.093 151.858 284.86C152.446 290.401 153.127 295.958 153.87 301.422C154.567 300.958 155.279 300.509 155.976 300.091L156.734 299.611C156.006 294.147 155.356 288.606 154.768 283.08C160.194 279.944 165.774 277.082 171.486 274.504C171.811 278.498 172.244 282.429 172.786 286.237C173.761 285.2 174.674 284.194 175.51 283.265C175.092 279.968 174.736 276.594 174.473 273.157C177.105 271.996 179.566 270.959 181.687 270.061C181.841 268.962 182.012 267.786 182.197 266.501C179.937 267.399 177.229 268.514 174.241 269.814C173.916 264.659 173.746 259.427 173.684 254.195C177.693 252.415 181.423 250.867 184.519 249.552C184.674 248.375 184.844 247.199 185.015 245.991C181.81 247.261 177.894 248.855 173.606 250.728C173.606 245.388 173.715 240.078 173.916 234.924C179.427 231.58 184.117 228.809 187.847 226.627C188.048 225.28 188.25 223.964 188.435 222.695C184.798 224.816 179.968 227.679 174.102 231.209C174.442 224.104 174.907 217.277 175.433 211.256C180.921 207.711 186.606 204.481 192.46 201.581C192.909 200.126 193.404 198.733 193.931 197.371C187.705 200.315 181.653 203.612 175.804 207.247ZM147.849 233.391C148.066 237.617 148.329 242.152 148.638 246.905C141.827 251.223 135.667 255.325 130.063 259.288C128.887 255.248 127.741 251.409 126.642 247.864C134.01 243.05 141.317 238.174 147.849 233.391ZM122.819 250.418C123.221 250.171 123.608 249.908 123.995 249.644C125.11 253.267 126.271 257.152 127.463 261.254C123.14 264.455 119.006 267.902 115.079 271.578C112.707 267.81 109.93 264.311 106.798 261.145C111.689 257.678 117.169 254.087 122.819 250.418ZM103.888 284.473C99.967 281.435 95.5009 279.175 90.7306 277.817C89.8637 277.584 89.0124 277.399 88.1765 277.228C90.1657 274.578 92.4392 272.154 94.9564 270C97.5724 267.74 100.73 265.356 104.244 262.848C107.533 266.101 110.418 269.739 112.835 273.684C109.49 276.963 106.492 280.579 103.888 284.473ZM118.082 300.138C114.797 295.062 110.839 290.454 106.318 286.439C108.696 282.832 111.435 279.477 114.491 276.423C117.151 281.023 119.499 285.796 121.519 290.711C120.027 293.738 118.875 296.92 118.082 300.2V300.138ZM123.376 287.274C121.428 282.808 119.216 278.461 116.751 274.256C120.452 270.777 124.343 267.505 128.407 264.458C129.506 268.312 130.621 272.321 131.72 276.454C128.513 279.735 125.712 283.388 123.376 287.336V287.274ZM137.4 271.16C136.286 272.058 135.249 272.972 134.305 273.9C133.237 269.953 132.168 266.161 131.1 262.399C136.472 258.452 142.431 254.443 148.932 250.295C149.19 254.309 149.495 258.437 149.846 262.678C145.497 265.222 141.337 268.078 137.4 271.222V271.16ZM151.843 248.406L155.418 246.162C161.022 242.684 166.151 239.531 170.805 236.704C170.634 241.704 170.541 246.827 170.572 251.982C164.83 254.582 158.653 257.616 152.74 260.96C152.353 256.718 152.106 252.524 151.843 248.468V248.406ZM154.412 279.488C153.886 274.396 153.437 269.334 153.019 264.381C158.762 261.084 164.876 258.034 170.603 255.418C170.603 260.635 170.867 265.851 171.223 270.99C165.867 273.467 159.938 276.362 154.412 279.55V279.488ZM170.944 233.051C165.851 236.146 160.108 239.645 153.793 243.577L151.61 244.939C151.301 240.016 151.053 235.357 150.836 231.007C154.237 228.405 157.502 225.631 160.619 222.695C164.23 219.313 168.09 216.209 172.167 213.407C171.671 219.46 171.238 226.116 170.928 233.066L170.944 233.051Z" fill="#CCCCCC"/>
<path d="M200.85 178.177C200.85 178.177 175.572 186.443 163.7 196.241C151.827 206.039 108.501 246.285 89.3993 259.706C70.298 273.126 63.0846 295.308 72.8985 311.824C82.7123 328.341 101.783 332.458 114.166 329.362C126.549 326.267 142.029 308.202 155.96 299.952C169.891 291.701 180.727 276.733 180.727 276.733C180.727 276.733 187.956 224.614 190.541 209.135C193.126 193.656 202.924 180.251 202.924 180.251C202.924 180.251 202.924 176.629 200.85 178.177Z" stroke="#263238" stroke-linecap="round" stroke-linejoin="round"/>
<path d="M86.8298 296.345C83.4299 296.092 80.0309 296.849 77.0595 298.52C74.088 300.192 71.6766 302.704 70.1277 305.741C70.833 307.861 71.7618 309.901 72.8985 311.824C77.4002 319.414 84.4569 325.154 92.8048 328.016C100.343 325.106 105.916 319.703 105.916 314.92C105.916 308.729 103.331 296.856 86.8298 296.345Z" fill="white" stroke="#263238" stroke-linecap="round" stroke-linejoin="round"/>
<path d="M191.051 588.222L172.755 605.249C166.811 610.775 161.269 615.883 161.269 619.706C161.269 623.53 159.149 628.638 162.121 631.192C165.093 633.746 178.715 636.734 191.903 636.734C202.219 636.561 212.153 632.801 219.998 626.099C225.09 621.843 225.524 616.301 231.05 613.716C236.576 611.131 246.374 611.595 248.077 605.218C249.78 598.84 247.226 589.042 247.226 589.042L191.051 588.222Z" fill="#878787" stroke="#263238" stroke-linecap="round" stroke-linejoin="round"/>
<path d="M248.046 605.249C248.438 603.622 248.63 601.953 248.619 600.28C242.195 605.512 228.743 610.96 224.595 614.629C219.765 618.901 215.493 629.675 191.516 630.975C171.393 632.074 162.988 626.146 160.759 624.164C160.372 626.889 160.186 629.566 162.09 631.192C165.077 633.746 178.684 636.733 191.872 636.733C202.188 636.561 212.122 632.801 219.967 626.099C225.059 621.842 225.493 616.301 231.019 613.716C236.545 611.131 246.343 611.626 248.046 605.249Z" fill="#263238" stroke="#263238" stroke-linecap="round" stroke-linejoin="round"/>
<path d="M327.269 588.222L345.565 605.249C351.525 610.775 357.051 615.883 357.051 619.706C357.051 623.53 359.171 628.638 356.199 631.192C353.227 633.746 339.606 636.734 326.417 636.734C316.106 636.562 306.177 632.801 298.338 626.099C293.23 621.843 292.812 616.301 287.27 613.716C281.729 611.131 271.961 611.595 270.243 605.218C268.525 598.84 271.095 589.042 271.095 589.042L327.269 588.222Z" fill="#878787" stroke="#263238" stroke-linecap="round" stroke-linejoin="round"/>
<path d="M270.243 605.249C269.846 603.622 269.649 601.954 269.655 600.28C276.094 605.512 289.53 610.96 293.679 614.629C298.524 618.901 302.796 629.675 326.758 630.975C346.881 632.074 355.286 626.146 357.531 624.164C357.902 626.889 358.088 629.566 356.184 631.192C353.212 633.746 339.59 636.733 326.402 636.733C316.09 636.561 306.161 632.801 298.323 626.099C293.214 621.842 292.796 616.301 287.255 613.716C281.713 611.131 271.946 611.626 270.243 605.249Z" fill="#263238" stroke="#263238" stroke-linecap="round" stroke-linejoin="round"/>
<path d="M253.742 163.735C253.742 163.735 213.821 174.849 202.986 177.945C192.15 181.04 186.408 203.981 184.86 230.295C183.312 256.61 175.572 349.485 174.798 353.355C174.024 357.225 165.217 392.827 167.538 405.211C169.86 417.594 191.825 566.195 191.825 566.195C191.825 566.195 185.634 575.482 187.182 577.804C188.73 580.126 189.504 591.735 189.504 591.735C189.504 591.735 208.853 598.701 221.236 598.701C233.619 598.701 249.099 594.057 249.099 594.057C249.099 594.057 245.229 565.421 246.777 548.394C248.325 531.366 248.325 419.916 248.325 419.916L263.804 596.379C263.804 596.379 282.379 601.797 298.632 601.023C314.885 600.249 331.912 590.961 331.912 590.961C331.912 590.961 334.234 577.804 332.686 571.612C331.139 565.421 321.851 554.585 321.851 550.715C321.851 546.846 329.591 417.594 329.591 417.594C329.591 417.594 334.234 381.218 333.46 362.643C332.686 344.068 334.234 300.726 334.234 300.726C334.234 300.726 337.33 261.254 339.652 238.809C341.974 216.364 342.624 196.241 341.85 191.597C341.076 186.953 303.276 171.474 293.988 168.378C284.701 165.283 265.352 164.509 253.742 163.735Z" fill="white"/>
<path d="M339.033 244.985C336.092 243.685 333.073 242.477 329.947 241.363L331.046 223.515C333.615 224.676 337.764 226.317 340.333 227.633L340.178 224.537C337.248 222.999 334.286 221.575 331.293 220.265L332.547 200.002C335.643 201.457 338.584 203.005 341.51 204.646L342.129 203.563C342.129 202.851 342.129 202.154 342.129 201.488C339.033 199.755 335.896 198.145 332.717 196.659L333.46 185.405C332.501 184.895 331.51 184.384 330.457 183.858L329.745 195.343C325.442 193.455 321.062 191.783 316.619 190.297L318.415 178.239L315.489 176.954L313.631 189.337C305.69 186.849 297.592 184.889 289.391 183.471L291.341 167.713C290.397 167.481 289.376 167.248 288.246 167.047L286.28 182.944C277.681 181.577 269.016 180.667 260.321 180.22L261.869 164.338L258.773 164.152L257.225 180.065C248.789 179.725 240.616 179.771 232.907 180.065C233.186 176.041 233.434 172.449 233.65 169.415L230.477 170.298C230.276 173.192 230.044 176.489 229.796 180.204C221.515 180.622 213.806 181.334 206.918 182.155C207.258 180.204 207.583 178.362 207.893 176.629L204.58 177.557C204.302 179.105 204.008 180.793 203.713 182.542C200.943 182.898 198.342 183.269 195.896 183.656C195.137 184.708 194.449 185.809 193.838 186.953C196.701 186.504 199.828 186.025 203.125 185.591C202.057 192.062 200.974 199.523 200.029 207.804C194.968 208.578 190.603 209.352 187.042 210.048C186.857 211.08 186.686 212.164 186.531 213.299C190.03 212.602 194.457 211.751 199.642 210.993C199.023 216.287 198.435 221.905 197.909 227.819C192.909 228.066 188.621 228.345 184.968 228.592C184.968 229.15 184.968 229.692 184.86 230.233C184.751 230.775 184.86 231.209 184.767 231.781C188.312 231.518 192.646 231.239 197.63 230.992C195.069 260.993 194.79 291.146 196.794 321.189L199.89 320.973C197.891 290.949 198.186 260.816 200.772 230.837C208.249 230.512 216.964 230.28 226.437 230.295C224.75 256.254 223.062 283.637 222.196 301.964L225.291 302.119C226.158 283.76 227.846 256.316 229.548 230.295C236.746 230.295 244.346 230.543 252.148 230.961L246.173 290.664L249.269 290.974L255.244 231.193C263.386 231.673 271.714 232.4 280.011 233.422L274.392 278.637L277.487 279.024L283.106 233.824C290.97 234.877 298.787 236.208 306.325 237.896L298.369 291.299L301.465 291.748L309.406 238.592C315.381 240.016 321.185 241.688 326.742 243.561L323.089 302.707L326.185 302.908L329.792 244.629C332.888 245.754 335.88 246.977 338.77 248.298C338.832 247.121 338.925 246.038 339.033 244.985ZM288.958 186.427C297.139 187.86 305.217 189.835 313.136 192.34L310.04 212.556C302.239 210.327 294.309 208.575 286.295 207.309L288.958 186.427ZM226.654 227.199C217.227 227.199 208.543 227.416 201.051 227.741C201.593 221.704 202.212 215.977 202.847 210.575C210.091 209.538 218.589 208.578 227.938 207.99C227.49 214.166 227.056 220.621 226.654 227.199ZM228.202 204.894C218.914 205.467 210.524 206.442 203.296 207.401C204.333 199.105 205.432 191.675 206.5 185.235C213.434 184.399 221.251 183.687 229.719 183.223C229.146 189.647 228.65 196.999 228.109 204.894H228.202ZM336.061 278.281C283.137 253.235 209.781 254.52 183.049 255.991C182.966 257.023 182.889 258.055 182.816 259.087C209.131 257.539 283.168 256.146 335.782 281.547C335.875 280.541 335.968 279.442 336.061 278.281ZM252.473 227.85C244.625 227.432 236.994 227.23 229.765 227.168C230.198 220.512 230.632 213.996 231.05 207.757C238.449 207.37 246.328 207.216 254.516 207.448L252.473 227.85ZM254.826 204.368C246.606 204.135 238.697 204.29 231.266 204.662C231.793 196.783 232.288 189.43 232.737 182.991C240.477 182.681 248.557 182.619 256.962 182.991L254.826 204.368ZM280.382 230.295C272.054 229.258 263.695 228.531 255.538 228.051L257.612 207.587C266.093 207.911 274.551 208.681 282.952 209.894L280.382 230.295ZM257.891 204.507L260.027 183.161C268.696 183.607 277.336 184.517 285.908 185.885L283.308 206.829C274.881 205.624 266.397 204.854 257.891 204.522V204.507ZM306.79 234.769C299.189 233.081 291.31 231.673 283.462 230.698L285.986 210.358C293.978 211.618 301.883 213.381 309.653 215.636L306.79 234.769ZM326.913 240.295C321.418 238.453 315.706 236.843 309.886 235.465L312.718 216.534C317.934 218.15 323.065 220.03 328.089 222.169L326.913 240.295ZM328.228 218.903C323.265 216.839 318.224 215.017 313.105 213.438L316.108 193.315C320.649 194.853 325.112 196.602 329.498 198.563L328.228 218.903Z" fill="#CCCCCC"/>
<path d="M253.742 163.735C253.742 163.735 213.821 174.849 202.986 177.945C192.15 181.04 186.408 203.981 184.86 230.295C183.312 256.61 175.572 349.485 174.798 353.355C174.024 357.225 165.217 392.827 167.538 405.211C169.86 417.594 191.825 566.195 191.825 566.195C191.825 566.195 185.634 575.482 187.182 577.804C188.73 580.126 189.504 591.735 189.504 591.735C189.504 591.735 208.853 598.701 221.236 598.701C233.619 598.701 249.099 594.057 249.099 594.057C249.099 594.057 245.229 565.421 246.777 548.394C248.325 531.366 248.325 419.916 248.325 419.916L263.804 596.379C263.804 596.379 282.379 601.797 298.632 601.023C314.885 600.249 331.912 590.961 331.912 590.961C331.912 590.961 334.234 577.804 332.686 571.612C331.139 565.421 321.851 554.585 321.851 550.715C321.851 546.846 329.591 417.594 329.591 417.594C329.591 417.594 334.234 381.218 333.46 362.643C332.686 344.068 334.234 300.726 334.234 300.726C334.234 300.726 337.33 261.254 339.652 238.809C341.974 216.364 342.624 196.241 341.85 191.597C341.076 186.953 303.276 171.474 293.988 168.378C284.701 165.283 265.352 164.509 253.742 163.735Z" stroke="#263238" stroke-linecap="round" stroke-linejoin="round"/>
<path d="M257.426 190.22L250.894 253.003" stroke="#263238" stroke-linecap="round" stroke-linejoin="round"/>
<path d="M248.325 419.916L263.804 596.379C263.804 596.379 282.379 601.797 298.632 601.023C314.885 600.249 331.912 590.961 331.912 590.961C331.912 590.961 334.234 577.804 332.686 571.612C331.138 565.421 321.851 554.585 321.851 550.715C321.851 546.846 329.591 417.594 329.591 417.594C329.591 417.594 334.234 381.218 333.46 362.643C333.367 360.584 333.321 358.2 333.29 355.631C331.742 350.662 324.622 327.768 319.034 303.713C312.718 276.516 306.062 250.325 306.062 250.325L211.639 242.586C207.274 241.611 206.794 246.471 206.794 246.471L177.879 319.224C176.331 337.799 175.015 352.024 174.783 353.495C174.024 357.225 165.217 392.827 167.538 405.211C169.86 417.594 191.825 566.195 191.825 566.195C191.825 566.195 185.634 575.482 187.182 577.804C188.73 580.126 189.503 591.735 189.503 591.735C189.503 591.735 208.853 598.701 221.236 598.701C233.619 598.701 249.099 594.057 249.099 594.057C249.099 594.057 245.229 565.421 246.777 548.394C248.325 531.366 248.325 419.916 248.325 419.916Z" fill="#49A078" stroke="#263238" stroke-linecap="round" stroke-linejoin="round"/>
<path d="M221.437 260.975L285.475 267.291L284.608 307.072C284.573 308.758 284.168 310.414 283.422 311.926C282.675 313.437 281.606 314.766 280.289 315.818L252.086 338.371C250.355 339.757 248.155 340.422 245.946 340.226C243.737 340.029 241.689 338.988 240.229 337.319L216.329 309.905C215.178 308.58 214.345 307.011 213.891 305.316C213.438 303.621 213.377 301.844 213.713 300.122L221.437 260.975Z" stroke="#263238" stroke-linecap="round" stroke-linejoin="round"/>
<path d="M226.778 361.497C226.778 361.497 245.229 367.317 269.996 362.457" stroke="#263238" stroke-linecap="round" stroke-linejoin="round"/>
<path d="M242.799 368.772L242.319 408.105L243.402 407.161C245.514 405.311 247.231 403.054 248.449 400.524C249.667 397.994 250.362 395.245 250.492 392.44L251.544 370.228" stroke="#263238" stroke-linecap="round" stroke-linejoin="round"/>
<path d="M228.712 413.941L256.389 421.216" stroke="#263238" stroke-linecap="round" stroke-linejoin="round"/>
<path d="M241.669 157.156C241.669 157.156 234.486 167.419 234.146 177.681C233.805 187.944 229.703 200.9 234.146 201.612C238.588 202.324 254.269 188.269 259.114 189.306C263.959 190.343 277.224 206.736 280.305 206.333C283.385 205.931 289.205 193.006 289.205 178.301C289.205 163.595 288.168 160.515 279.918 155.732C271.667 150.949 252.612 145.872 241.669 157.156Z" fill="white" stroke="#263238" stroke-linecap="round" stroke-linejoin="round"/>
<path d="M247.133 163.317C247.133 163.317 249.532 184.864 257.055 188.61C264.578 192.356 279.283 168.781 280.986 167.759C282.689 166.738 262.256 169.818 247.133 163.317Z" fill="#CCCCCC" stroke="#263238" stroke-linecap="round" stroke-linejoin="round"/>
<path d="M306.511 128.829C306.511 128.829 312.796 121.26 315.799 125.733C318.802 130.207 315.458 138.72 311.697 143.163C309.657 145.738 306.722 147.451 303.477 147.961L306.511 128.829Z" fill="white" stroke="#263238" stroke-linecap="round" stroke-linejoin="round"/>
<path d="M235.848 121.26C235.848 121.26 229.022 113.04 226.561 120.223C224.1 127.405 232.381 140.067 233.403 140.067H234.424L235.848 121.26Z" fill="white" stroke="#263238" stroke-linecap="round" stroke-linejoin="round"/>
<path d="M238.108 96.6167C238.108 96.6167 232.598 141.367 236.375 152.342C240.152 163.317 254.95 173.688 268.742 172.991C282.534 172.295 295.258 165.422 299.7 160.608C304.143 155.794 310.025 99.6661 310.025 99.6661C310.025 99.6661 295.227 91.7407 271.807 89.3414C248.387 86.9421 238.108 96.6167 238.108 96.6167Z" fill="white" stroke="#263238" stroke-linecap="round" stroke-linejoin="round"/>
<path d="M285.97 119.031C285.973 119.191 285.928 119.349 285.841 119.483C285.754 119.618 285.628 119.724 285.48 119.787C285.333 119.849 285.17 119.867 285.012 119.836C284.854 119.806 284.71 119.729 284.596 119.615C284.483 119.502 284.406 119.357 284.375 119.199C284.345 119.042 284.362 118.878 284.425 118.731C284.487 118.583 284.593 118.458 284.728 118.37C284.862 118.283 285.02 118.238 285.181 118.241C285.39 118.241 285.591 118.324 285.739 118.472C285.887 118.62 285.97 118.821 285.97 119.031Z" fill="white" stroke="#263238" stroke-width="0.5" stroke-linecap="round" stroke-linejoin="round"/>
<path d="M295.459 117.699C295.462 117.86 295.417 118.018 295.33 118.152C295.242 118.287 295.117 118.393 294.969 118.455C294.822 118.518 294.658 118.535 294.501 118.505C294.343 118.474 294.198 118.397 294.085 118.284C293.971 118.17 293.894 118.026 293.864 117.868C293.833 117.71 293.851 117.547 293.913 117.4C293.976 117.252 294.082 117.126 294.217 117.039C294.351 116.952 294.509 116.907 294.669 116.91C294.879 116.91 295.08 116.993 295.228 117.141C295.376 117.289 295.459 117.49 295.459 117.699Z" fill="white" stroke="#263238" stroke-width="0.5" stroke-linecap="round" stroke-linejoin="round"/>
<path d="M294.484 123.024C294.518 123.144 294.524 123.27 294.501 123.393C294.478 123.515 294.427 123.631 294.352 123.73C294.277 123.83 294.18 123.91 294.069 123.966C293.957 124.021 293.834 124.05 293.71 124.05C293.585 124.05 293.462 124.021 293.351 123.966C293.239 123.91 293.142 123.83 293.067 123.73C292.992 123.631 292.941 123.515 292.918 123.393C292.896 123.27 292.902 123.144 292.936 123.024C292.902 122.905 292.896 122.778 292.918 122.656C292.941 122.533 292.992 122.418 293.067 122.318C293.142 122.219 293.239 122.138 293.351 122.083C293.462 122.027 293.585 121.998 293.71 121.998C293.834 121.998 293.957 122.027 294.069 122.083C294.18 122.138 294.277 122.219 294.352 122.318C294.427 122.418 294.478 122.533 294.501 122.656C294.524 122.778 294.518 122.905 294.484 123.024Z" fill="white" stroke="#263238" stroke-width="0.5" stroke-linecap="round" stroke-linejoin="round"/>
<path d="M254.748 114.681C254.745 114.841 254.79 114.999 254.878 115.134C254.965 115.269 255.09 115.374 255.238 115.437C255.386 115.5 255.549 115.517 255.707 115.486C255.864 115.456 256.009 115.379 256.122 115.265C256.236 115.152 256.313 115.007 256.343 114.85C256.374 114.692 256.357 114.529 256.294 114.381C256.231 114.233 256.126 114.108 255.991 114.021C255.856 113.933 255.698 113.888 255.538 113.892C255.329 113.892 255.128 113.975 254.98 114.123C254.832 114.271 254.748 114.472 254.748 114.681Z" fill="white" stroke="#263238" stroke-width="0.5" stroke-linecap="round" stroke-linejoin="round"/>
<path d="M245.229 113.35C245.226 113.51 245.271 113.668 245.358 113.803C245.445 113.937 245.571 114.043 245.718 114.106C245.866 114.169 246.029 114.186 246.187 114.155C246.344 114.125 246.489 114.048 246.603 113.934C246.716 113.821 246.793 113.676 246.824 113.518C246.854 113.361 246.837 113.198 246.774 113.05C246.711 112.902 246.606 112.777 246.471 112.69C246.336 112.602 246.179 112.557 246.018 112.56C245.809 112.56 245.608 112.644 245.46 112.792C245.312 112.94 245.229 113.14 245.229 113.35Z" fill="white" stroke="#263238" stroke-width="0.5" stroke-linecap="round" stroke-linejoin="round"/>
<path d="M246.235 118.674C246.232 118.835 246.277 118.993 246.364 119.127C246.451 119.262 246.577 119.368 246.725 119.43C246.872 119.493 247.035 119.511 247.193 119.48C247.351 119.449 247.495 119.372 247.609 119.259C247.722 119.145 247.799 119.001 247.83 118.843C247.86 118.686 247.843 118.522 247.78 118.375C247.718 118.227 247.612 118.101 247.477 118.014C247.343 117.927 247.185 117.882 247.024 117.885C246.815 117.885 246.614 117.968 246.466 118.116C246.318 118.264 246.235 118.465 246.235 118.674Z" fill="white" stroke="#263238" stroke-width="0.5" stroke-linecap="round" stroke-linejoin="round"/>
<path d="M307.796 98.8921C305.701 102.669 304.719 106.963 304.963 111.275C305.507 115.699 306.334 120.084 307.44 124.402L306.511 128.782L310.056 99.6661L307.796 98.8921Z" fill="#263238" stroke="#263238" stroke-linecap="round" stroke-linejoin="round"/>
<path d="M241.08 95.3474C241.463 99.3577 241.463 103.395 241.08 107.406C240.286 110.628 238.837 113.652 236.824 116.291L235.848 121.26L238.108 96.6167L241.08 95.3474Z" fill="#263238" stroke="#263238" stroke-linecap="round" stroke-linejoin="round"/>
<path d="M265.259 109.279C265.259 109.279 260.816 125.702 261.497 127.405C262.179 129.108 267.999 130.501 272.782 129.804C277.565 129.108 276.187 108.938 276.187 108.938" stroke="#263238" stroke-linecap="round" stroke-linejoin="round"/>
<path d="M284.747 111.337C284.747 111.337 289.546 107.916 296.032 112.359" stroke="#263238" stroke-linecap="round" stroke-linejoin="round"/>
<path d="M248.51 108.257C249.895 107.27 251.581 106.797 253.277 106.922C254.973 107.046 256.572 107.759 257.798 108.938" stroke="#263238" stroke-linecap="round" stroke-linejoin="round"/>
<path d="M262.875 95.6259C262.875 95.6259 250.894 94.2483 245.089 99.3874" stroke="#263238" stroke-width="3" stroke-linecap="round" stroke-linejoin="round"/>
<path d="M282.379 99.372C282.379 99.372 293.663 96.6321 300.165 105.564" stroke="#263238" stroke-width="3" stroke-linecap="round" stroke-linejoin="round"/>
<path d="M302.502 134.928C300.118 139.37 293.957 144.215 293.957 144.215C293.957 144.215 294.298 131.832 289.855 131.213C285.413 130.594 269.33 131.553 261.467 128.829C261.467 128.829 245.74 126.43 245.059 129.851C244.377 133.272 242.659 141.476 242.659 141.476C242.659 141.476 241.297 142.157 238.898 136.011C237.357 131.781 236.257 127.403 235.616 122.947C234.842 134.804 234.579 147.296 236.344 152.357C240.136 163.379 254.919 173.703 268.711 173.007C282.503 172.31 295.227 165.437 299.669 160.623C301.883 158.24 304.437 143.287 306.449 128.798C304.972 130.732 303.652 132.782 302.502 134.928ZM283.014 150.314C280.32 151.862 275.506 152.249 270.336 151.955C268.649 146.228 267.952 146.893 263.525 146.893C260.569 146.893 260.337 149.153 260.429 150.67C257.241 150.107 254.126 149.188 251.142 147.93C244.641 144.835 250.105 136.646 250.105 136.646C260.027 140.407 284.298 139.03 284.298 139.03C284.298 139.03 289.546 146.553 283.045 150.314H283.014Z" fill="#263238" stroke="#263238" stroke-linecap="round" stroke-linejoin="round"/>
<path d="M206.871 246.409C206.871 246.409 208.326 258.545 211.236 259.04C214.146 259.536 217.072 245.434 217.072 245.434C217.072 245.434 209.301 246.409 206.871 246.409Z" stroke="#263238" stroke-linecap="round" stroke-linejoin="round"/>
<path d="M295.861 249.49C295.861 249.49 295.165 261.703 297.951 262.693C300.737 263.684 306.062 250.31 306.062 250.31C306.062 250.31 298.245 249.923 295.861 249.49Z" stroke="#263238" stroke-linecap="round" stroke-linejoin="round"/>
<path d="M211.174 173.579C211.174 173.579 204.983 234.753 204.983 242.044C204.983 249.335 215.663 253.205 218.589 241.069C221.515 228.933 227.319 171.149 227.319 171.149C227.319 171.149 218.032 170.174 211.174 173.579Z" fill="#49A078" stroke="#263238" stroke-linecap="round" stroke-linejoin="round"/>
<path d="M305.923 172.604C305.923 172.604 291.837 246.904 294.762 250.294C297.688 253.684 303.493 258.545 308.833 248.359C314.173 238.174 323.894 178.424 323.894 178.424C323.894 178.424 314.173 173.022 305.923 172.604Z" fill="#49A078" stroke="#263238" stroke-linecap="round" stroke-linejoin="round"/>
<path d="M215.122 254.907C215.122 255.52 214.94 256.118 214.6 256.627C214.26 257.136 213.776 257.533 213.211 257.767C212.645 258.002 212.022 258.063 211.422 257.944C210.821 257.824 210.27 257.529 209.837 257.096C209.404 256.663 209.109 256.112 208.989 255.511C208.87 254.911 208.931 254.288 209.166 253.723C209.4 253.157 209.797 252.673 210.306 252.333C210.815 251.993 211.414 251.811 212.026 251.811C212.847 251.811 213.634 252.138 214.215 252.718C214.796 253.299 215.122 254.086 215.122 254.907Z" fill="white" stroke="#263238" stroke-linecap="round" stroke-linejoin="round"/>
<path d="M302.038 259.706C302.038 260.318 301.856 260.917 301.516 261.426C301.176 261.935 300.692 262.332 300.126 262.566C299.561 262.8 298.938 262.862 298.338 262.742C297.737 262.623 297.186 262.328 296.753 261.895C296.32 261.462 296.025 260.91 295.905 260.31C295.786 259.709 295.847 259.087 296.081 258.521C296.316 257.955 296.713 257.472 297.222 257.132C297.731 256.792 298.329 256.61 298.942 256.61C299.763 256.61 300.55 256.936 301.131 257.517C301.711 258.097 302.038 258.885 302.038 259.706Z" fill="white" stroke="#263238" stroke-linecap="round" stroke-linejoin="round"/>
<path d="M364.697 311.128C364.697 311.128 376.632 315.106 374.248 329.022C371.864 342.938 362.701 342.953 360.317 342.551C357.519 341.906 354.755 341.121 352.035 340.198C352.035 340.198 358.01 332.644 355.224 324.285C352.438 315.926 352.763 310.323 364.697 311.128Z" fill="white" stroke="#263238" stroke-linecap="round" stroke-linejoin="round"/>
<path d="M305.412 332.613C306.624 337.505 309.251 341.931 312.966 345.337C318.941 350.523 330.07 351.312 330.07 351.312C328.103 356.465 324.972 361.095 320.922 364.841C314.56 370.413 307.393 378.37 305.443 383.54C303.493 388.71 306.991 387.131 309.421 383.942C311.851 380.754 314.994 375.583 314.994 375.583C314.994 375.583 311.805 386.326 314.994 384.345C318.182 382.363 320.164 373.989 320.164 373.989C320.164 373.989 320.164 384.345 322.548 381.961C324.931 379.577 324.544 372.008 324.544 370.816C324.544 369.624 328.909 368.417 331.309 366.033C333.708 363.649 323.739 366.033 323.739 366.033C323.739 366.033 338.073 356.095 340.457 352.504C342.841 348.913 336.866 342.551 335.287 340.569C333.708 338.588 305.412 332.613 305.412 332.613Z" fill="#CFCFCF" stroke="#263238" stroke-linecap="round" stroke-linejoin="round"/>
<path d="M330.07 351.312C328.103 356.465 324.972 361.095 320.922 364.841C314.56 370.413 307.393 378.37 305.443 383.54C303.493 388.71 306.991 387.131 309.421 383.942C311.851 380.753 314.994 375.583 314.994 375.583C314.994 375.583 311.805 386.326 314.994 384.345C318.182 382.363 320.164 373.989 320.164 373.989C320.164 373.989 320.164 384.345 322.548 381.961C324.931 379.577 324.544 372.008 324.544 370.816C324.544 369.624 328.909 368.417 331.309 366.033C333.708 363.649 323.739 366.033 323.739 366.033C323.739 366.033 338.073 356.095 340.457 352.504C341.448 350.956 340.983 349.021 339.993 347.071C333.878 345.507 330.07 351.312 330.07 351.312Z" fill="white" stroke="#263238" stroke-linecap="round" stroke-linejoin="round"/>
<path d="M303.88 318.156C305.101 323.047 307.733 327.472 311.449 330.879C317.408 336.05 328.553 336.854 328.553 336.854C326.579 342.004 323.449 346.632 319.405 350.383C313.043 355.956 305.876 363.912 303.926 369.082C301.976 374.252 305.474 372.673 307.904 369.485C310.334 366.296 313.477 361.126 313.477 361.126C313.477 361.126 310.303 371.868 313.477 369.887C316.65 367.906 318.647 359.532 318.647 359.532C318.647 359.532 318.647 369.887 321.046 367.488C323.445 365.089 323.027 357.55 323.027 356.358C323.027 355.166 327.408 353.959 329.792 351.575C332.176 349.191 322.238 351.575 322.238 351.575C322.238 351.575 336.556 341.622 338.956 338.046C341.355 334.471 335.364 328.093 333.77 326.112C332.176 324.131 303.88 318.156 303.88 318.156Z" fill="white" stroke="#263238" stroke-linecap="round" stroke-linejoin="round"/>
<path d="M328.553 336.854C326.579 342.004 323.449 346.632 319.405 350.383C313.043 355.956 305.876 363.912 303.926 369.082C301.976 374.252 305.474 372.673 307.904 369.485C310.334 366.296 313.477 361.126 313.477 361.126C313.477 361.126 310.303 371.868 313.477 369.887C316.65 367.906 318.647 359.531 318.647 359.531C318.647 359.531 318.647 369.887 321.046 367.488C323.445 365.088 323.027 357.55 323.027 356.358C323.027 355.166 327.408 353.959 329.792 351.575C332.176 349.191 322.238 351.575 322.238 351.575C322.238 351.575 336.556 341.622 338.956 338.046C339.946 336.498 339.482 334.563 338.476 332.613C332.346 331.05 328.553 336.854 328.553 336.854Z" fill="white" stroke="#263238" stroke-linecap="round" stroke-linejoin="round"/>
<path d="M306.635 268.993C306.635 268.993 294.252 259.706 284.964 269.504C275.676 279.303 280.831 300.989 287.023 309.75C293.214 318.512 323.136 328.852 341.2 327.304C359.264 325.756 372.669 306.144 372.669 295.819C372.669 285.494 363.908 278.281 357.19 277.77C350.472 277.259 337.593 275.185 337.593 275.185C337.593 275.185 312.3 273.637 306.635 268.993Z" fill="#CFCFCF" stroke="#263238" stroke-linecap="round" stroke-linejoin="round"/>
<path d="M353.583 251.749C353.583 251.749 355.797 247.617 353.429 240.171C351.06 232.726 345.983 232.431 345.983 234.413V237.509C345.983 237.509 340.921 232.091 339.559 233.112C338.197 234.134 339.219 239.877 339.219 239.877C339.219 239.877 349.946 242.354 353.583 251.749Z" fill="#263238" stroke="#263238" stroke-linecap="round" stroke-linejoin="round"/>
<path d="M353.583 251.75C353.583 251.75 350.193 241.549 341.448 239.119C332.702 236.688 322.996 240.666 319.591 244.474C315.046 250.214 310.834 256.209 306.975 262.43C303.57 267.771 286.094 276.036 289.499 278.947C292.905 281.857 302.115 277.492 302.115 277.492C302.115 277.492 295.799 287.197 303.57 285.742C311.341 284.287 311.836 280.881 311.836 280.881C311.836 280.881 309.886 293.033 315.226 291.082C320.566 289.132 320.086 284.767 320.086 284.767C320.086 284.767 317.656 295.943 322.996 295.943C328.337 295.943 329.312 288.203 329.312 288.203C329.312 288.203 330.767 298.404 337.052 296.933C343.336 295.463 339.962 289.658 339.962 289.658C339.962 289.658 347.701 296.454 349.249 292.568C350.797 288.683 346.339 281.408 346.339 281.408C346.339 281.408 340.999 269.752 345.844 264.891C350.689 260.031 360.905 257.152 360.905 257.152L353.583 251.75Z" fill="#878787" stroke="#263238" stroke-linecap="round" stroke-linejoin="round"/>
<path d="M350.596 260C350.921 260.294 351.246 260.557 351.571 260.82C354.548 259.299 357.656 258.05 360.859 257.09L353.583 251.75C353.583 251.75 345.256 255.155 350.596 260Z" fill="#49A078" stroke="#263238" stroke-linecap="round" stroke-linejoin="round"/>
<path d="M344.9 249.474C344.903 249.846 344.795 250.21 344.59 250.52C344.386 250.831 344.093 251.073 343.751 251.217C343.408 251.361 343.03 251.399 342.665 251.327C342.3 251.255 341.965 251.077 341.702 250.814C341.439 250.551 341.261 250.216 341.189 249.851C341.117 249.486 341.156 249.108 341.299 248.766C341.443 248.423 341.685 248.13 341.996 247.926C342.306 247.721 342.67 247.613 343.042 247.617C343.535 247.617 344.007 247.812 344.356 248.161C344.704 248.509 344.9 248.981 344.9 249.474Z" fill="white" stroke="#263238" stroke-linecap="round" stroke-linejoin="round"/>
<path d="M361.911 319.873C361.911 319.873 352.361 323.852 346.788 319.471C341.215 315.09 332.857 308.341 325.303 308.341C317.749 308.341 316.944 314.703 320.52 317.087C324.095 319.471 332.47 325.848 332.47 325.848C332.47 325.848 321.325 326.235 314.963 321.065C308.601 315.895 304.127 306.747 299.839 307.134C295.552 307.521 300.226 316.298 300.226 316.298C300.226 316.298 293.865 309.131 291.481 311.917C289.097 314.703 295.861 323.852 299.035 328.635C302.208 333.418 319.73 340.198 324.513 341.746C326.685 342.573 328.962 343.094 331.278 343.294C331.278 343.294 347.593 340.972 352.035 340.198C356.478 339.424 360.797 338.216 362.391 331.839C363.985 325.462 363.103 321.065 361.911 319.873Z" fill="white" stroke="#263238" stroke-linecap="round" stroke-linejoin="round"/>
<path d="M300.227 316.298C300.227 316.298 305.799 328.232 314.56 333L300.227 316.298Z" fill="white"/>
<path d="M300.227 316.298C300.227 316.298 305.799 328.232 314.56 333" stroke="#263238" stroke-linecap="round" stroke-linejoin="round"/>
<path d="M183.312 291.825L97.7891 287.955L101.272 329.362H101.705C104.182 338.758 120.157 346.606 139.862 347.52C148.793 347.937 158.607 347.349 167.121 344.099C175.99 340.724 179.179 332.226 180.34 323.48C180.82 319.967 182.584 291.794 183.312 291.825Z" fill="#878787" stroke="#263238" stroke-linecap="round" stroke-linejoin="round"/>
<path d="M145.574 306.654C143.644 306.654 141.693 306.608 139.722 306.515C129.148 306.194 118.695 304.171 108.764 300.525C96.9068 295.772 94.6313 290.231 94.8326 286.408C95.0338 282.584 97.7891 277.29 110.049 273.637C120.289 270.929 130.899 269.883 141.472 270.541C152.046 270.863 162.499 272.885 172.43 276.532C184.287 281.284 186.563 286.825 186.361 290.649C186.176 294.457 183.405 299.766 171.145 303.419C162.814 305.687 154.207 306.776 145.574 306.654ZM135.497 276.609C127.471 276.48 119.467 277.481 111.72 279.581C103.888 281.903 101.009 284.86 100.885 286.702C100.761 288.544 103.393 291.748 110.962 294.782C120.271 298.176 130.066 300.047 139.97 300.323C149.862 300.961 159.792 300.005 169.381 297.491C177.213 295.169 180.092 292.212 180.216 290.37C180.309 288.544 177.708 285.324 170.139 282.29C160.821 278.888 151.016 277.011 141.1 276.733C139.212 276.733 137.339 276.609 135.497 276.609Z" fill="#878787" stroke="#263238" stroke-linecap="round" stroke-linejoin="round"/>
<path d="M182.888 290.41C183.267 282.263 164.626 274.778 141.253 273.692C117.879 272.606 98.6247 278.33 98.2462 286.477C97.8677 294.624 116.509 302.109 139.882 303.195C163.255 304.281 182.51 298.557 182.888 290.41Z" fill="white" stroke="#263238" stroke-linecap="round" stroke-linejoin="round"/>
<path d="M145.62 289.797C140.976 293.853 134.305 293.806 130.667 289.674C127.029 285.541 127.834 278.838 132.447 274.829C137.06 270.82 149.474 265.789 153.112 269.922C156.749 274.055 150.233 285.726 145.62 289.797Z" fill="white" stroke="#263238" stroke-miterlimit="10"/>
<path d="M136.874 282.46C136.874 288.652 132.416 293.59 126.905 293.59C121.395 293.59 116.937 288.605 116.937 282.46C116.937 276.315 121.41 263.699 126.905 263.699C132.401 263.699 136.874 276.299 136.874 282.46Z" fill="white" stroke="#263238" stroke-miterlimit="10"/>
<path d="M166.052 288.977C166.052 295.169 161.579 300.122 156.084 300.122C150.589 300.122 146.115 295.122 146.115 288.977C146.115 282.832 150.573 270.216 156.084 270.216C161.594 270.216 166.052 282.816 166.052 288.977Z" fill="white" stroke="#263238" stroke-miterlimit="10"/>
<path d="M153.019 297.026C153.019 303.218 148.545 308.171 143.05 308.171C137.555 308.171 133.082 303.171 133.082 297.026C133.082 290.881 137.54 278.281 143.066 278.281C148.592 278.281 153.019 290.866 153.019 297.026Z" fill="white" stroke="#263238" stroke-miterlimit="10"/>
<path d="M122.339 290.122C122.339 296.314 117.881 301.267 112.37 301.267C106.86 301.267 102.402 296.283 102.402 290.122C102.402 283.962 106.86 271.362 112.37 271.362C117.881 271.362 122.339 283.977 122.339 290.122Z" fill="white" stroke="#263238" stroke-miterlimit="10"/>
<path d="M177.554 290.122C177.554 296.314 173.08 301.267 167.585 301.267C162.09 301.267 157.616 296.283 157.616 290.122C157.616 283.962 162.074 271.362 167.585 271.362C173.096 271.362 177.554 283.977 177.554 290.122Z" fill="white" stroke="#263238" stroke-miterlimit="10"/>
<path d="M132.586 302.831C127.943 306.902 121.271 306.84 117.633 302.707C113.996 298.574 114.785 291.872 119.414 287.862C124.042 283.853 136.441 278.823 140.078 282.956C143.716 287.089 137.199 298.76 132.586 302.831Z" fill="white" stroke="#263238" stroke-miterlimit="10"/>
<path d="M170.603 291.175C174.876 295.602 175.123 302.305 171.161 306.112C167.198 309.92 160.511 309.441 156.254 305.013C151.997 300.586 146.44 288.404 150.418 284.581C154.397 280.758 166.285 286.748 170.603 291.175Z" fill="white" stroke="#263238" stroke-miterlimit="10"/>
<path d="M182.553 292.104C181.778 292.107 181.03 291.819 180.457 291.298C179.884 290.776 179.527 290.059 179.458 289.287L177.739 258.653C177.245 253.02 175.363 247.596 172.262 242.867C169.162 238.137 164.938 234.249 159.969 231.549L156.61 229.723C151.786 227.09 146.401 225.653 140.907 225.531C135.413 225.41 129.97 226.608 125.034 229.025C120.099 231.442 115.815 235.007 112.542 239.422C109.27 243.836 107.103 248.972 106.225 254.396L101.21 285.355C101.034 286.121 100.573 286.792 99.9203 287.231C99.2677 287.67 98.4726 287.844 97.6963 287.718C96.92 287.592 96.2208 287.175 95.7407 286.552C95.2606 285.929 95.0355 285.147 95.1112 284.364L100.126 253.406C101.161 247.003 103.717 240.943 107.578 235.732C111.439 230.521 116.494 226.312 122.318 223.459C128.142 220.605 134.565 219.19 141.049 219.332C147.533 219.474 153.889 221.168 159.582 224.274L162.941 226.116C168.812 229.31 173.802 233.907 177.464 239.498C181.127 245.089 183.348 251.5 183.931 258.158L185.634 288.791C185.707 289.608 185.453 290.421 184.928 291.05C184.402 291.68 183.649 292.076 182.832 292.15L182.553 292.104Z" fill="#878787" stroke="#263238" stroke-linecap="round" stroke-linejoin="round"/>
<path d="M112.107 348.975C112.107 348.975 113.454 349.176 121.194 350.213C128.933 351.25 141.317 346.869 143.066 340.709C143.979 337.613 137.385 337.613 132.741 339.687C128.097 341.761 112.107 348.975 112.107 348.975Z" fill="white" stroke="#263238" stroke-linecap="round" stroke-linejoin="round"/>
<path d="M94.5694 309.239C94.5694 309.239 103.331 305.633 111.597 310.276C117.203 313.608 122.399 317.588 127.076 322.134C127.076 322.134 129.645 325.229 124.491 328.325C119.336 331.421 118.299 329.362 114.166 326.267C111.241 324.288 107.878 323.05 104.368 322.66C104.368 322.66 114.692 332.458 118.299 335.554C121.906 338.65 132.23 332.969 135.326 337.102C138.422 341.235 136.874 342.783 128.097 345.352C119.321 347.922 111.07 352.581 103.857 347.937C96.6437 343.294 79.601 324.208 77.5423 318.016C75.4835 311.824 87.3406 305.106 94.5694 309.239Z" fill="white" stroke="#263238" stroke-linecap="round" stroke-linejoin="round"/>
</svg>
